<svg id="visual" viewBox="0 0 960 540" width="960" height="540" xmlns="http://www.w3.org/2000/svg" xmlns:xlink="http://www.w3.org/1999/xlink" version="1.1"><rect x="0" y="0" width="960" height="540" fill="#000000"></rect><path d="M0 247L74 247L74 297L148 297L148 361L222 361L222 316L295 316L295 319L369 319L369 369L443 369L443 351L517 351L517 262L591 262L591 292L665 292L665 258L738 258L738 356L812 356L812 247L886 247L886 298L960 298L960 367L960 0L960 0L886 0L886 0L812 0L812 0L738 0L738 0L665 0L665 0L591 0L591 0L517 0L517 0L443 0L443 0L369 0L369 0L295 0L295 0L222 0L222 0L148 0L148 0L74 0L74 0L0 0Z" fill="#333333"></path><path d="M0 302L74 302L74 256L148 256L148 262L222 262L222 286L295 286L295 265L369 265L369 287L443 287L443 258L517 258L517 205L591 205L591 267L665 267L665 292L738 292L738 260L812 260L812 294L886 294L886 213L960 213L960 270L960 0L960 0L886 0L886 0L812 0L812 0L738 0L738 0L665 0L665 0L591 0L591 0L517 0L517 0L443 0L443 0L369 0L369 0L295 0L295 0L222 0L222 0L148 0L148 0L74 0L74 0L0 0Z" fill="#3e3446"></path><path d="M0 212L74 212L74 216L148 216L148 162L222 162L222 229L295 229L295 196L369 196L369 211L443 211L443 172L517 172L517 165L591 165L591 245L665 245L665 212L738 212L738 245L812 245L812 172L886 172L886 256L960 256L960 228L960 0L960 0L886 0L886 0L812 0L812 0L738 0L738 0L665 0L665 0L591 0L591 0L517 0L517 0L443 0L443 0L369 0L369 0L295 0L295 0L222 0L222 0L148 0L148 0L74 0L74 0L0 0Z" fill="#49355a"></path><path d="M0 144L74 144L74 171L148 171L148 152L222 152L222 181L295 181L295 191L369 191L369 190L443 190L443 163L517 163L517 133L591 133L591 134L665 134L665 143L738 143L738 187L812 187L812 188L886 188L886 160L960 160L960 182L960 0L960 0L886 0L886 0L812 0L812 0L738 0L738 0L665 0L665 0L591 0L591 0L517 0L517 0L443 0L443 0L369 0L369 0L295 0L295 0L222 0L222 0L148 0L148 0L74 0L74 0L0 0Z" fill="#53356e"></path><path d="M0 142L74 142L74 114L148 114L148 146L222 146L222 131L295 131L295 121L369 121L369 133L443 133L443 112L517 112L517 103L591 103L591 75L665 75L665 132L738 132L738 91L812 91L812 126L886 126L886 106L960 106L960 100L960 0L960 0L886 0L886 0L812 0L812 0L738 0L738 0L665 0L665 0L591 0L591 0L517 0L517 0L443 0L443 0L369 0L369 0L295 0L295 0L222 0L222 0L148 0L148 0L74 0L74 0L0 0Z" fill="#5d3483"></path><path d="M0 57L74 57L74 78L148 78L148 43L222 43L222 40L295 40L295 64L369 64L369 55L443 55L443 57L517 57L517 73L591 73L591 36L665 36L665 83L738 83L738 39L812 39L812 42L886 42L886 75L960 75L960 47L960 0L960 0L886 0L886 0L812 0L812 0L738 0L738 0L665 0L665 0L591 0L591 0L517 0L517 0L443 0L443 0L369 0L369 0L295 0L295 0L222 0L222 0L148 0L148 0L74 0L74 0L0 0Z" fill="#663399"></path></svg>