<svg id="visual" viewBox="0 0 960 540" width="960" height="540" xmlns="http://www.w3.org/2000/svg" xmlns:xlink="http://www.w3.org/1999/xlink" version="1.1"><rect x="0" y="0" width="960" height="540" fill="#000000"></rect><path d="M0 291L74 291L74 241L148 241L148 177L222 177L222 222L295 222L295 219L369 219L369 169L443 169L443 187L517 187L517 276L591 276L591 246L665 246L665 280L738 280L738 182L812 182L812 291L886 291L886 240L960 240L960 171L960 541L960 541L886 541L886 541L812 541L812 541L738 541L738 541L665 541L665 541L591 541L591 541L517 541L517 541L443 541L443 541L369 541L369 541L295 541L295 541L222 541L222 541L148 541L148 541L74 541L74 541L0 541Z" fill="#333333"></path><path d="M0 236L74 236L74 282L148 282L148 276L222 276L222 252L295 252L295 273L369 273L369 251L443 251L443 280L517 280L517 333L591 333L591 271L665 271L665 246L738 246L738 278L812 278L812 244L886 244L886 325L960 325L960 268L960 541L960 541L886 541L886 541L812 541L812 541L738 541L738 541L665 541L665 541L591 541L591 541L517 541L517 541L443 541L443 541L369 541L369 541L295 541L295 541L222 541L222 541L148 541L148 541L74 541L74 541L0 541Z" fill="#3e3446"></path><path d="M0 326L74 326L74 322L148 322L148 376L222 376L222 309L295 309L295 342L369 342L369 327L443 327L443 366L517 366L517 373L591 373L591 293L665 293L665 326L738 326L738 293L812 293L812 366L886 366L886 282L960 282L960 310L960 541L960 541L886 541L886 541L812 541L812 541L738 541L738 541L665 541L665 541L591 541L591 541L517 541L517 541L443 541L443 541L369 541L369 541L295 541L295 541L222 541L222 541L148 541L148 541L74 541L74 541L0 541Z" fill="#49355a"></path><path d="M0 394L74 394L74 367L148 367L148 386L222 386L222 357L295 357L295 347L369 347L369 348L443 348L443 375L517 375L517 405L591 405L591 404L665 404L665 395L738 395L738 351L812 351L812 350L886 350L886 378L960 378L960 356L960 541L960 541L886 541L886 541L812 541L812 541L738 541L738 541L665 541L665 541L591 541L591 541L517 541L517 541L443 541L443 541L369 541L369 541L295 541L295 541L222 541L222 541L148 541L148 541L74 541L74 541L0 541Z" fill="#53356e"></path><path d="M0 396L74 396L74 424L148 424L148 392L222 392L222 407L295 407L295 417L369 417L369 405L443 405L443 426L517 426L517 435L591 435L591 463L665 463L665 406L738 406L738 447L812 447L812 412L886 412L886 432L960 432L960 438L960 541L960 541L886 541L886 541L812 541L812 541L738 541L738 541L665 541L665 541L591 541L591 541L517 541L517 541L443 541L443 541L369 541L369 541L295 541L295 541L222 541L222 541L148 541L148 541L74 541L74 541L0 541Z" fill="#5d3483"></path><path d="M0 481L74 481L74 460L148 460L148 495L222 495L222 498L295 498L295 474L369 474L369 483L443 483L443 481L517 481L517 465L591 465L591 502L665 502L665 455L738 455L738 499L812 499L812 496L886 496L886 463L960 463L960 491L960 541L960 541L886 541L886 541L812 541L812 541L738 541L738 541L665 541L665 541L591 541L591 541L517 541L517 541L443 541L443 541L369 541L369 541L295 541L295 541L222 541L222 541L148 541L148 541L74 541L74 541L0 541Z" fill="#663399"></path></svg>